<svg xmlns="http://www.w3.org/2000/svg" width="512" height="512" enable-background="new 0 0 512 512" viewBox="0 0 512 512"><circle cx="256" cy="256" r="192" fill="#231F20"/><circle cx="256" cy="256" r="168" fill="#22B24E"/><path fill="#24CE5C" d="M256,112c-88.749,0-161.415,68.817-167.569,156c6.154,87.182,78.82,156,167.569,156
		c88.748,0,161.414-68.818,167.568-156C417.414,180.817,344.748,112,256,112z"/><path fill="#45ED7D" d="M423.806,264C419.629,174.932,346.101,104,256,104c-90.102,0-163.629,70.932-167.806,160
		c0.063,1.338,0.143,2.672,0.237,4.001C94.584,180.818,167.251,112,256,112c88.748,0,161.416,68.818,167.568,156.001
		C423.662,266.672,423.743,265.338,423.806,264z"/><path fill="#231F20" fill-rule="evenodd" d="M382.862 237.036c-.05 11.803-12.804 19.031-23.487 13.167-7.245-3.979-14.66-7.583-22.385-10.589-15.347-5.97-31.253-9.987-47.51-12.77-11.316-1.938-22.717-3.22-34.18-3.888-11.919-.694-23.846-.776-35.783-.177-13.677.687-27.246 2.145-40.636 4.95-4.941 1.036-9.825 2.342-14.711 3.608-2.996.777-5.949.876-8.934.028-6.533-1.854-11.037-7.534-11.23-14.185-.188-6.46 3.919-12.466 10.374-14.53 4.725-1.511 9.574-2.699 14.426-3.787 12.011-2.694 24.189-4.359 36.466-5.446 13.034-1.155 26.093-1.526 39.16-1.164 32.194.895 63.761 5.463 94.311 15.696 12.456 4.173 24.445 9.352 35.84 15.804 4.063 2.3 6.79 5.541 7.827 10.024C382.657 234.844 382.716 235.949 382.862 237.036zM230.787 273.445c-19.188.078-38.845 2.386-58.044 7.915-3.129.9-6.268.961-9.333-.244-4.988-1.96-8.234-6.812-8.058-11.943.183-5.354 3.548-10.018 8.867-11.593 5.413-1.604 10.907-2.994 16.433-4.186 13.602-2.931 27.389-4.481 41.318-4.994 29.969-1.104 59.244 2.658 87.806 11.54 14.441 4.491 28.257 10.372 41.306 17.902.649.375 1.293.758 1.938 1.14 6.805 4.035 7.616 12.156 4.372 17.332-3.712 5.917-11.428 7.757-17.843 4.246-3.618-1.979-7.194-4.045-10.894-5.874-16.959-8.387-34.938-13.823-53.595-17.25C260.693 274.798 246.195 273.508 230.787 273.445zM233.786 301.059c22.089.227 43.697 3.123 64.668 9.985 11.567 3.785 22.614 8.683 33.104 14.746.908.525 1.83 1.043 2.67 1.661 4.233 3.12 5.332 8.767 2.607 13.213-2.642 4.313-8.248 6.047-13.042 3.993-.963-.413-1.864-.967-2.773-1.489-17.78-10.228-36.966-16.561-57.359-19.591-12.514-1.859-25.099-2.505-37.735-2.022-16.345.623-32.485 2.824-48.455 6.254-1.613.347-3.273.662-4.913.679-4.945.052-9.119-3.351-9.987-7.964-.919-4.886 1.576-9.465 6.193-11.267.975-.38 2.015-.623 3.044-.848 13.063-2.845 26.247-4.997 39.587-6.093C218.843 301.706 226.322 301.466 233.786 301.059z" clip-rule="evenodd"/></svg>