<svg xmlns="http://www.w3.org/2000/svg" enable-background="new 0 0 64 64" viewBox="0 0 64 64"><path fill="#314a52" d="M3,13C3,7.5,7.5,3,13,3h38c5.5,0,10,4.5,10,10v38c0,5.5-4.5,10-10,10H13C7.5,61,3,56.5,3,51V13z"/><path fill-rule="evenodd" d="M9.5,5.1c1-0.5,2.1-0.8,4-0.9C15.4,4,17.8,4,21.2,4h21.6c3.4,0,5.8,0,7.7,0.2c1.9,0.2,3.1,0.4,4,0.9
		c1.9,1,3.4,2.5,4.4,4.4c0.5,1,0.8,2.1,0.9,4c0.1,1.7,0.2,3.8,0.2,6.6c-0.1,12.2-7.7,22.7-19,28.1c-3.5,2.3-9.8,3.8-17,3.8
		c-11,0-19.9-3.6-20-7.9c0-0.4,0-0.8,0-1.3V21.2c0-3.4,0-5.8,0.2-7.7c0.2-1.9,0.4-3.1,0.9-4C6,7.6,7.6,6,9.5,5.1z M42.9,0H21.1
		c-3.3,0-5.9,0-8,0.2C11,0.3,9.3,0.7,7.6,1.5C5,2.9,2.9,5,1.5,7.6C0.7,9.3,0.3,11,0.2,13.2C0,15.2,0,17.8,0,21.1v21.8
		c0,3.3,0,5.9,0.2,8c0.2,2.1,0.5,3.9,1.4,5.5C2.9,59,5,61.1,7.6,62.5c1.6,0.8,3.4,1.2,5.5,1.4c2.1,0.2,4.7,0.2,8,0.2h21.8
		c3.3,0,5.9,0,8-0.2c2.1-0.2,3.9-0.5,5.5-1.4c2.6-1.3,4.8-3.5,6.1-6.1c0.8-1.6,1.2-3.4,1.4-5.5c0.2-2.1,0.2-4.7,0.2-8V21.1
		c0-3.3,0-5.9-0.2-8c-0.2-2.1-0.5-3.9-1.4-5.5C61.1,5,59,2.9,56.4,1.5c-1.6-0.8-3.4-1.2-5.5-1.4C48.8,0,46.2,0,42.9,0z" clip-rule="evenodd"/><path fill="#fe2c55" d="M54,22c-6.6,0-12-5.4-12-12h-8v32c0,3.3-2.7,6-6,6c-3.3,0-6-2.7-6-6c0-3.3,2.7-6,6-6c0.7,0,1.4,0.1,2,0.3v-8.2
		C29.3,28,28.7,28,28,28c-7.7,0-14,6.3-14,14c0,7.7,6.3,14,14,14c7.7,0,14-6.3,14-14V26c3.3,2.5,7.5,4,12,4V22z"/><path fill="#25f4ee" d="M52,20c-6.6,0-12-5.4-12-12h-8v32c0,3.3-2.7,6-6,6c-3.3,0-6-2.7-6-6c0-3.3,2.7-6,6-6c0.7,0,1.4,0.1,2,0.3v-8.2
		C27.3,26,26.7,26,26,26c-7.7,0-14,6.3-14,14c0,7.7,6.3,14,14,14c7.7,0,14-6.3,14-14V24c3.3,2.5,7.5,4,12,4V20z"/><path fill="#fff" d="M52,21.8c-3-0.5-5.6-2.1-7.4-4.4c-2.3-1.8-3.9-4.4-4.4-7.4H34v32c0,3.3-2.7,6-6,6c-2.2,0-4.1-1.2-5.1-2.9
		c-1.7-1.1-2.9-3-2.9-5.1c0-3.3,2.7-6,6-6c0.7,0,1.4,0.1,2,0.3V28c-7.7,0-14,6.3-14,14c0,3.4,1.2,6.4,3.2,8.8c2.4,2,5.5,3.2,8.8,3.2
		c7.7,0,14-6.3,14-14V24c3.3,2.5,7.5,4,12,4V21.8z"/></svg>